<mxfile host="app.diagrams.net" agent="Mozilla/5.0 (X11; Linux x86_64; rv:142.0) Gecko/20100101 Firefox/142.0" version="28.2.5">
  <diagram name="PÃ¡gina-1" id="KXCWb9pRoWjMyCgd7eDS">
    <mxGraphModel dx="2172" dy="1286" grid="1" gridSize="10" guides="1" tooltips="1" connect="1" arrows="1" fold="1" page="1" pageScale="1" pageWidth="1600" pageHeight="900" math="0" shadow="0">
      <root>
        <mxCell id="0" />
        <mxCell id="1" parent="0" />
        <mxCell id="PT10j_FzXJRccaoBTvu9-1" value="Cliente" style="swimlane;fontStyle=1;align=center;verticalAlign=top;childLayout=stackLayout;horizontal=1;startSize=26;horizontalStack=0;resizeParent=1;resizeParentMax=0;resizeLast=0;collapsible=1;marginBottom=0;whiteSpace=wrap;html=1;labelBackgroundColor=none;fillColor=#B2C9AB;strokeColor=#788AA3;fontColor=#46495D;" parent="1" vertex="1">
          <mxGeometry x="1077" y="92" width="410" height="268" as="geometry" />
        </mxCell>
        <mxCell id="PT10j_FzXJRccaoBTvu9-2" value="- nombre: string" style="text;strokeColor=none;fillColor=none;align=left;verticalAlign=top;spacingLeft=4;spacingRight=4;overflow=hidden;rotatable=0;points=[[0,0.5],[1,0.5]];portConstraint=eastwest;whiteSpace=wrap;html=1;labelBackgroundColor=none;fontColor=#46495D;" parent="PT10j_FzXJRccaoBTvu9-1" vertex="1">
          <mxGeometry y="26" width="410" height="26" as="geometry" />
        </mxCell>
        <mxCell id="PT10j_FzXJRccaoBTvu9-5" value="- apellido: string" style="text;strokeColor=none;fillColor=none;align=left;verticalAlign=top;spacingLeft=4;spacingRight=4;overflow=hidden;rotatable=0;points=[[0,0.5],[1,0.5]];portConstraint=eastwest;whiteSpace=wrap;html=1;labelBackgroundColor=none;fontColor=#46495D;" parent="PT10j_FzXJRccaoBTvu9-1" vertex="1">
          <mxGeometry y="52" width="410" height="26" as="geometry" />
        </mxCell>
        <mxCell id="PT10j_FzXJRccaoBTvu9-6" value="- direccion: string" style="text;strokeColor=none;fillColor=none;align=left;verticalAlign=top;spacingLeft=4;spacingRight=4;overflow=hidden;rotatable=0;points=[[0,0.5],[1,0.5]];portConstraint=eastwest;whiteSpace=wrap;html=1;labelBackgroundColor=none;fontColor=#46495D;" parent="PT10j_FzXJRccaoBTvu9-1" vertex="1">
          <mxGeometry y="78" width="410" height="26" as="geometry" />
        </mxCell>
        <mxCell id="PT10j_FzXJRccaoBTvu9-7" value="- edad: int" style="text;strokeColor=none;fillColor=none;align=left;verticalAlign=top;spacingLeft=4;spacingRight=4;overflow=hidden;rotatable=0;points=[[0,0.5],[1,0.5]];portConstraint=eastwest;whiteSpace=wrap;html=1;labelBackgroundColor=none;fontColor=#46495D;" parent="PT10j_FzXJRccaoBTvu9-1" vertex="1">
          <mxGeometry y="104" width="410" height="26" as="geometry" />
        </mxCell>
        <mxCell id="PT10j_FzXJRccaoBTvu9-8" value="- sueldo_neto: double" style="text;strokeColor=none;fillColor=none;align=left;verticalAlign=top;spacingLeft=4;spacingRight=4;overflow=hidden;rotatable=0;points=[[0,0.5],[1,0.5]];portConstraint=eastwest;whiteSpace=wrap;html=1;labelBackgroundColor=none;fontColor=#46495D;" parent="PT10j_FzXJRccaoBTvu9-1" vertex="1">
          <mxGeometry y="130" width="410" height="26" as="geometry" />
        </mxCell>
        <mxCell id="PT10j_FzXJRccaoBTvu9-3" value="" style="line;strokeWidth=1;fillColor=none;align=left;verticalAlign=middle;spacingTop=-1;spacingLeft=3;spacingRight=3;rotatable=0;labelPosition=right;points=[];portConstraint=eastwest;strokeColor=#788AA3;labelBackgroundColor=none;fontColor=#46495D;" parent="PT10j_FzXJRccaoBTvu9-1" vertex="1">
          <mxGeometry y="156" width="410" height="8" as="geometry" />
        </mxCell>
        <mxCell id="PT10j_FzXJRccaoBTvu9-4" value="+ edad(): int" style="text;strokeColor=none;fillColor=none;align=left;verticalAlign=top;spacingLeft=4;spacingRight=4;overflow=hidden;rotatable=0;points=[[0,0.5],[1,0.5]];portConstraint=eastwest;whiteSpace=wrap;html=1;labelBackgroundColor=none;fontColor=#46495D;" parent="PT10j_FzXJRccaoBTvu9-1" vertex="1">
          <mxGeometry y="164" width="410" height="26" as="geometry" />
        </mxCell>
        <mxCell id="61x0QmUBfxeX2At7VMEN-2" value="+ sueldNeto(): int" style="text;strokeColor=none;fillColor=none;align=left;verticalAlign=top;spacingLeft=4;spacingRight=4;overflow=hidden;rotatable=0;points=[[0,0.5],[1,0.5]];portConstraint=eastwest;whiteSpace=wrap;html=1;labelBackgroundColor=none;fontColor=#46495D;" vertex="1" parent="PT10j_FzXJRccaoBTvu9-1">
          <mxGeometry y="190" width="410" height="26" as="geometry" />
        </mxCell>
        <mxCell id="61x0QmUBfxeX2At7VMEN-1" value="+ sueldoNetoAnual(): double" style="text;strokeColor=none;fillColor=none;align=left;verticalAlign=top;spacingLeft=4;spacingRight=4;overflow=hidden;rotatable=0;points=[[0,0.5],[1,0.5]];portConstraint=eastwest;whiteSpace=wrap;html=1;labelBackgroundColor=none;fontColor=#46495D;" vertex="1" parent="PT10j_FzXJRccaoBTvu9-1">
          <mxGeometry y="216" width="410" height="26" as="geometry" />
        </mxCell>
        <mxCell id="47Hi3gHZrNvDlHMeIHNF-22" value="+ solicitarCredito(Banco, SolicitudDeCredito): void" style="text;strokeColor=none;fillColor=none;align=left;verticalAlign=top;spacingLeft=4;spacingRight=4;overflow=hidden;rotatable=0;points=[[0,0.5],[1,0.5]];portConstraint=eastwest;whiteSpace=wrap;html=1;labelBackgroundColor=none;fontColor=#46495D;" parent="PT10j_FzXJRccaoBTvu9-1" vertex="1">
          <mxGeometry y="242" width="410" height="26" as="geometry" />
        </mxCell>
        <mxCell id="47Hi3gHZrNvDlHMeIHNF-1" value="Banco" style="swimlane;fontStyle=1;align=center;verticalAlign=top;childLayout=stackLayout;horizontal=1;startSize=26;horizontalStack=0;resizeParent=1;resizeParentMax=0;resizeLast=0;collapsible=1;marginBottom=0;whiteSpace=wrap;html=1;labelBackgroundColor=none;fillColor=#B2C9AB;strokeColor=#788AA3;fontColor=#46495D;" parent="1" vertex="1">
          <mxGeometry x="442" y="151" width="410" height="112" as="geometry" />
        </mxCell>
        <mxCell id="47Hi3gHZrNvDlHMeIHNF-3" value="" style="line;strokeWidth=1;fillColor=none;align=left;verticalAlign=middle;spacingTop=-1;spacingLeft=3;spacingRight=3;rotatable=0;labelPosition=right;points=[];portConstraint=eastwest;strokeColor=#788AA3;labelBackgroundColor=none;fontColor=#46495D;" parent="47Hi3gHZrNvDlHMeIHNF-1" vertex="1">
          <mxGeometry y="26" width="410" height="8" as="geometry" />
        </mxCell>
        <mxCell id="47Hi3gHZrNvDlHMeIHNF-83" value="+ montoADesembolsarPorCreditos(): double" style="text;strokeColor=none;fillColor=none;align=left;verticalAlign=top;spacingLeft=4;spacingRight=4;overflow=hidden;rotatable=0;points=[[0,0.5],[1,0.5]];portConstraint=eastwest;whiteSpace=wrap;html=1;labelBackgroundColor=none;fontColor=#46495D;" parent="47Hi3gHZrNvDlHMeIHNF-1" vertex="1">
          <mxGeometry y="34" width="410" height="26" as="geometry" />
        </mxCell>
        <mxCell id="47Hi3gHZrNvDlHMeIHNF-4" value="+ agregarCliente(Cliente): void" style="text;strokeColor=none;fillColor=none;align=left;verticalAlign=top;spacingLeft=4;spacingRight=4;overflow=hidden;rotatable=0;points=[[0,0.5],[1,0.5]];portConstraint=eastwest;whiteSpace=wrap;html=1;labelBackgroundColor=none;fontColor=#46495D;" parent="47Hi3gHZrNvDlHMeIHNF-1" vertex="1">
          <mxGeometry y="60" width="410" height="26" as="geometry" />
        </mxCell>
        <mxCell id="47Hi3gHZrNvDlHMeIHNF-32" value="+ agregarSolicitudDeCredito(SolicitudDeCredito):void" style="text;strokeColor=none;fillColor=none;align=left;verticalAlign=top;spacingLeft=4;spacingRight=4;overflow=hidden;rotatable=0;points=[[0,0.5],[1,0.5]];portConstraint=eastwest;whiteSpace=wrap;html=1;labelBackgroundColor=none;fontColor=#46495D;" parent="47Hi3gHZrNvDlHMeIHNF-1" vertex="1">
          <mxGeometry y="86" width="410" height="26" as="geometry" />
        </mxCell>
        <mxCell id="47Hi3gHZrNvDlHMeIHNF-7" value="&amp;lt;&amp;lt;registro_clientes&amp;gt;&amp;gt;" style="text;html=1;align=center;verticalAlign=middle;resizable=0;points=[];autosize=1;strokeColor=none;fillColor=none;labelBackgroundColor=none;fontColor=#46495D;" parent="1" vertex="1">
          <mxGeometry x="872" y="161" width="140" height="30" as="geometry" />
        </mxCell>
        <mxCell id="47Hi3gHZrNvDlHMeIHNF-8" value="*" style="text;html=1;align=center;verticalAlign=middle;resizable=0;points=[];autosize=1;strokeColor=none;fillColor=none;labelBackgroundColor=none;fontColor=#46495D;" parent="1" vertex="1">
          <mxGeometry x="1032" y="161" width="30" height="30" as="geometry" />
        </mxCell>
        <mxCell id="47Hi3gHZrNvDlHMeIHNF-18" value="&lt;i&gt;SolicitudDeCredito&lt;/i&gt;" style="swimlane;fontStyle=1;align=center;verticalAlign=top;childLayout=stackLayout;horizontal=1;startSize=26;horizontalStack=0;resizeParent=1;resizeParentMax=0;resizeLast=0;collapsible=1;marginBottom=0;whiteSpace=wrap;html=1;labelBackgroundColor=none;fillColor=#B2C9AB;strokeColor=#788AA3;fontColor=#46495D;" parent="1" vertex="1">
          <mxGeometry x="567" y="362" width="160" height="190" as="geometry" />
        </mxCell>
        <mxCell id="47Hi3gHZrNvDlHMeIHNF-19" value="- montoTotal: double" style="text;strokeColor=none;fillColor=none;align=left;verticalAlign=top;spacingLeft=4;spacingRight=4;overflow=hidden;rotatable=0;points=[[0,0.5],[1,0.5]];portConstraint=eastwest;whiteSpace=wrap;html=1;labelBackgroundColor=none;fontColor=#46495D;" parent="47Hi3gHZrNvDlHMeIHNF-18" vertex="1">
          <mxGeometry y="26" width="160" height="26" as="geometry" />
        </mxCell>
        <mxCell id="47Hi3gHZrNvDlHMeIHNF-40" value="- plazo_en_meses: int" style="text;strokeColor=none;fillColor=none;align=left;verticalAlign=top;spacingLeft=4;spacingRight=4;overflow=hidden;rotatable=0;points=[[0,0.5],[1,0.5]];portConstraint=eastwest;whiteSpace=wrap;html=1;labelBackgroundColor=none;fontColor=#46495D;" parent="47Hi3gHZrNvDlHMeIHNF-18" vertex="1">
          <mxGeometry y="52" width="160" height="26" as="geometry" />
        </mxCell>
        <mxCell id="47Hi3gHZrNvDlHMeIHNF-20" value="" style="line;strokeWidth=1;fillColor=none;align=left;verticalAlign=middle;spacingTop=-1;spacingLeft=3;spacingRight=3;rotatable=0;labelPosition=right;points=[];portConstraint=eastwest;strokeColor=#788AA3;labelBackgroundColor=none;fontColor=#46495D;" parent="47Hi3gHZrNvDlHMeIHNF-18" vertex="1">
          <mxGeometry y="78" width="160" height="8" as="geometry" />
        </mxCell>
        <mxCell id="47Hi3gHZrNvDlHMeIHNF-21" value="+ montoMensual(): double" style="text;strokeColor=none;fillColor=none;align=left;verticalAlign=top;spacingLeft=4;spacingRight=4;overflow=hidden;rotatable=0;points=[[0,0.5],[1,0.5]];portConstraint=eastwest;whiteSpace=wrap;html=1;labelBackgroundColor=none;fontColor=#46495D;" parent="47Hi3gHZrNvDlHMeIHNF-18" vertex="1">
          <mxGeometry y="86" width="160" height="26" as="geometry" />
        </mxCell>
        <mxCell id="61x0QmUBfxeX2At7VMEN-4" value="&lt;div&gt;+ montoTotal(): double&lt;/div&gt;" style="text;strokeColor=none;fillColor=none;align=left;verticalAlign=top;spacingLeft=4;spacingRight=4;overflow=hidden;rotatable=0;points=[[0,0.5],[1,0.5]];portConstraint=eastwest;whiteSpace=wrap;html=1;labelBackgroundColor=none;fontColor=#46495D;" vertex="1" parent="47Hi3gHZrNvDlHMeIHNF-18">
          <mxGeometry y="112" width="160" height="26" as="geometry" />
        </mxCell>
        <mxCell id="61x0QmUBfxeX2At7VMEN-5" value="+ plazoEnMeses(): int" style="text;strokeColor=none;fillColor=none;align=left;verticalAlign=top;spacingLeft=4;spacingRight=4;overflow=hidden;rotatable=0;points=[[0,0.5],[1,0.5]];portConstraint=eastwest;whiteSpace=wrap;html=1;labelBackgroundColor=none;fontColor=#46495D;" vertex="1" parent="47Hi3gHZrNvDlHMeIHNF-18">
          <mxGeometry y="138" width="160" height="26" as="geometry" />
        </mxCell>
        <mxCell id="47Hi3gHZrNvDlHMeIHNF-41" value="+ esAceptable(): bool" style="text;strokeColor=none;fillColor=none;align=left;verticalAlign=top;spacingLeft=4;spacingRight=4;overflow=hidden;rotatable=0;points=[[0,0.5],[1,0.5]];portConstraint=eastwest;whiteSpace=wrap;html=1;fontStyle=2;fontFamily=Times New Roman;labelBackgroundColor=none;fontColor=#46495D;" parent="47Hi3gHZrNvDlHMeIHNF-18" vertex="1">
          <mxGeometry y="164" width="160" height="26" as="geometry" />
        </mxCell>
        <mxCell id="47Hi3gHZrNvDlHMeIHNF-23" value="" style="endArrow=open;endFill=1;endSize=12;html=1;rounded=0;labelBackgroundColor=none;strokeColor=#788AA3;fontColor=default;" parent="1" source="47Hi3gHZrNvDlHMeIHNF-1" target="47Hi3gHZrNvDlHMeIHNF-18" edge="1">
          <mxGeometry width="160" relative="1" as="geometry">
            <mxPoint x="647" y="312" as="sourcePoint" />
            <mxPoint x="687" y="402" as="targetPoint" />
          </mxGeometry>
        </mxCell>
        <mxCell id="47Hi3gHZrNvDlHMeIHNF-24" value="*" style="text;html=1;align=center;verticalAlign=middle;resizable=0;points=[];autosize=1;strokeColor=none;fillColor=none;labelBackgroundColor=none;fontColor=#46495D;" parent="1" vertex="1">
          <mxGeometry x="647" y="315.5" width="30" height="30" as="geometry" />
        </mxCell>
        <mxCell id="47Hi3gHZrNvDlHMeIHNF-33" value="" style="endArrow=open;endFill=1;endSize=12;html=1;rounded=0;edgeStyle=orthogonalEdgeStyle;labelBackgroundColor=none;strokeColor=#788AA3;fontColor=default;" parent="1" source="47Hi3gHZrNvDlHMeIHNF-18" target="PT10j_FzXJRccaoBTvu9-1" edge="1">
          <mxGeometry width="160" relative="1" as="geometry">
            <mxPoint x="817" y="442" as="sourcePoint" />
            <mxPoint x="977" y="442" as="targetPoint" />
          </mxGeometry>
        </mxCell>
        <mxCell id="47Hi3gHZrNvDlHMeIHNF-34" value="&amp;lt;&amp;lt;solicitante&amp;gt;&amp;gt;" style="text;html=1;align=center;verticalAlign=middle;resizable=0;points=[];autosize=1;strokeColor=none;fillColor=none;labelBackgroundColor=none;fontColor=#46495D;" parent="1" vertex="1">
          <mxGeometry x="892" y="402" width="100" height="30" as="geometry" />
        </mxCell>
        <mxCell id="47Hi3gHZrNvDlHMeIHNF-35" value="1" style="text;html=1;align=center;verticalAlign=middle;resizable=0;points=[];autosize=1;strokeColor=none;fillColor=none;labelBackgroundColor=none;fontColor=#46495D;" parent="1" vertex="1">
          <mxGeometry x="1247" y="372" width="30" height="30" as="geometry" />
        </mxCell>
        <mxCell id="47Hi3gHZrNvDlHMeIHNF-36" value="*" style="text;html=1;align=center;verticalAlign=middle;resizable=0;points=[];autosize=1;strokeColor=none;fillColor=none;labelBackgroundColor=none;fontColor=#46495D;" parent="1" vertex="1">
          <mxGeometry x="727" y="402" width="30" height="30" as="geometry" />
        </mxCell>
        <mxCell id="47Hi3gHZrNvDlHMeIHNF-39" value="&amp;lt;&amp;lt;solicitudes&amp;gt;&amp;gt;" style="text;html=1;align=center;verticalAlign=middle;resizable=0;points=[];autosize=1;strokeColor=none;fillColor=none;labelBackgroundColor=none;fontColor=#46495D;" parent="1" vertex="1">
          <mxGeometry x="537" y="308" width="110" height="30" as="geometry" />
        </mxCell>
        <mxCell id="47Hi3gHZrNvDlHMeIHNF-42" value="&lt;i&gt;CreditoPersonal&lt;/i&gt;" style="swimlane;fontStyle=1;align=center;verticalAlign=top;childLayout=stackLayout;horizontal=1;startSize=26;horizontalStack=0;resizeParent=1;resizeParentMax=0;resizeLast=0;collapsible=1;marginBottom=0;whiteSpace=wrap;html=1;labelBackgroundColor=none;fillColor=#B2C9AB;strokeColor=#788AA3;fontColor=#46495D;" parent="1" vertex="1">
          <mxGeometry x="667" y="710" width="160" height="60" as="geometry" />
        </mxCell>
        <mxCell id="47Hi3gHZrNvDlHMeIHNF-45" value="" style="line;strokeWidth=1;fillColor=none;align=left;verticalAlign=middle;spacingTop=-1;spacingLeft=3;spacingRight=3;rotatable=0;labelPosition=right;points=[];portConstraint=eastwest;strokeColor=#788AA3;labelBackgroundColor=none;fontColor=#46495D;" parent="47Hi3gHZrNvDlHMeIHNF-42" vertex="1">
          <mxGeometry y="26" width="160" height="8" as="geometry" />
        </mxCell>
        <mxCell id="47Hi3gHZrNvDlHMeIHNF-47" value="+ esAceptable(): bool" style="text;strokeColor=none;fillColor=none;align=left;verticalAlign=top;spacingLeft=4;spacingRight=4;overflow=hidden;rotatable=0;points=[[0,0.5],[1,0.5]];portConstraint=eastwest;whiteSpace=wrap;html=1;labelBackgroundColor=none;fontColor=#46495D;" parent="47Hi3gHZrNvDlHMeIHNF-42" vertex="1">
          <mxGeometry y="34" width="160" height="26" as="geometry" />
        </mxCell>
        <mxCell id="47Hi3gHZrNvDlHMeIHNF-48" value="Extends" style="endArrow=block;endSize=16;endFill=0;html=1;rounded=0;edgeStyle=orthogonalEdgeStyle;labelBackgroundColor=none;strokeColor=#788AA3;fontColor=default;" parent="1" source="47Hi3gHZrNvDlHMeIHNF-42" target="47Hi3gHZrNvDlHMeIHNF-18" edge="1">
          <mxGeometry width="160" relative="1" as="geometry">
            <mxPoint x="367" y="702" as="sourcePoint" />
            <mxPoint x="527" y="702" as="targetPoint" />
            <mxPoint as="offset" />
          </mxGeometry>
        </mxCell>
        <mxCell id="47Hi3gHZrNvDlHMeIHNF-50" value="&lt;i&gt;CreditoHipotecario&lt;/i&gt;" style="swimlane;fontStyle=1;align=center;verticalAlign=top;childLayout=stackLayout;horizontal=1;startSize=26;horizontalStack=0;resizeParent=1;resizeParentMax=0;resizeLast=0;collapsible=1;marginBottom=0;whiteSpace=wrap;html=1;labelBackgroundColor=none;fillColor=#B2C9AB;strokeColor=#788AA3;fontColor=#46495D;" parent="1" vertex="1">
          <mxGeometry x="467" y="710" width="160" height="60" as="geometry" />
        </mxCell>
        <mxCell id="47Hi3gHZrNvDlHMeIHNF-51" value="" style="line;strokeWidth=1;fillColor=none;align=left;verticalAlign=middle;spacingTop=-1;spacingLeft=3;spacingRight=3;rotatable=0;labelPosition=right;points=[];portConstraint=eastwest;strokeColor=#788AA3;labelBackgroundColor=none;fontColor=#46495D;" parent="47Hi3gHZrNvDlHMeIHNF-50" vertex="1">
          <mxGeometry y="26" width="160" height="8" as="geometry" />
        </mxCell>
        <mxCell id="47Hi3gHZrNvDlHMeIHNF-53" value="+ esAceptable(): bool" style="text;strokeColor=none;fillColor=none;align=left;verticalAlign=top;spacingLeft=4;spacingRight=4;overflow=hidden;rotatable=0;points=[[0,0.5],[1,0.5]];portConstraint=eastwest;whiteSpace=wrap;html=1;labelBackgroundColor=none;fontColor=#46495D;" parent="47Hi3gHZrNvDlHMeIHNF-50" vertex="1">
          <mxGeometry y="34" width="160" height="26" as="geometry" />
        </mxCell>
        <mxCell id="47Hi3gHZrNvDlHMeIHNF-54" value="Extends" style="endArrow=block;endSize=16;endFill=0;html=1;rounded=0;edgeStyle=orthogonalEdgeStyle;labelBackgroundColor=none;strokeColor=#788AA3;fontColor=default;" parent="1" source="47Hi3gHZrNvDlHMeIHNF-50" target="47Hi3gHZrNvDlHMeIHNF-18" edge="1">
          <mxGeometry width="160" relative="1" as="geometry">
            <mxPoint x="647" y="694" as="sourcePoint" />
            <mxPoint x="797" y="612" as="targetPoint" />
            <mxPoint as="offset" />
          </mxGeometry>
        </mxCell>
        <mxCell id="47Hi3gHZrNvDlHMeIHNF-59" value="Propiedadinmobiliaria" style="swimlane;fontStyle=0;childLayout=stackLayout;horizontal=1;startSize=26;fillColor=#6d8764;horizontalStack=0;resizeParent=1;resizeParentMax=0;resizeLast=0;collapsible=1;marginBottom=0;whiteSpace=wrap;html=1;labelBackgroundColor=none;fontColor=#ffffff;strokeColor=#3A5431;" parent="1" vertex="1">
          <mxGeometry x="112" y="671" width="140" height="138" as="geometry" />
        </mxCell>
        <mxCell id="47Hi3gHZrNvDlHMeIHNF-60" value="- descripciÃ³n: string" style="text;strokeColor=none;fillColor=none;align=left;verticalAlign=top;spacingLeft=4;spacingRight=4;overflow=hidden;rotatable=0;points=[[0,0.5],[1,0.5]];portConstraint=eastwest;whiteSpace=wrap;html=1;labelBackgroundColor=none;fontColor=#46495D;" parent="47Hi3gHZrNvDlHMeIHNF-59" vertex="1">
          <mxGeometry y="26" width="140" height="26" as="geometry" />
        </mxCell>
        <mxCell id="47Hi3gHZrNvDlHMeIHNF-64" value="- direcciÃ³n: string" style="text;strokeColor=none;fillColor=none;align=left;verticalAlign=top;spacingLeft=4;spacingRight=4;overflow=hidden;rotatable=0;points=[[0,0.5],[1,0.5]];portConstraint=eastwest;whiteSpace=wrap;html=1;labelBackgroundColor=none;fontColor=#46495D;" parent="47Hi3gHZrNvDlHMeIHNF-59" vertex="1">
          <mxGeometry y="52" width="140" height="26" as="geometry" />
        </mxCell>
        <mxCell id="47Hi3gHZrNvDlHMeIHNF-65" value="&lt;div&gt;- valor_fiscal:&amp;nbsp; double&lt;/div&gt;" style="text;strokeColor=none;fillColor=none;align=left;verticalAlign=top;spacingLeft=4;spacingRight=4;overflow=hidden;rotatable=0;points=[[0,0.5],[1,0.5]];portConstraint=eastwest;whiteSpace=wrap;html=1;labelBackgroundColor=none;fontColor=#46495D;" parent="47Hi3gHZrNvDlHMeIHNF-59" vertex="1">
          <mxGeometry y="78" width="140" height="26" as="geometry" />
        </mxCell>
        <mxCell id="47Hi3gHZrNvDlHMeIHNF-66" value="" style="line;strokeWidth=1;fillColor=none;align=left;verticalAlign=middle;spacingTop=-1;spacingLeft=3;spacingRight=3;rotatable=0;labelPosition=right;points=[];portConstraint=eastwest;strokeColor=#788AA3;labelBackgroundColor=none;fontColor=#46495D;" parent="47Hi3gHZrNvDlHMeIHNF-59" vertex="1">
          <mxGeometry y="104" width="140" height="8" as="geometry" />
        </mxCell>
        <mxCell id="47Hi3gHZrNvDlHMeIHNF-67" value="+ valorFiscal(): double" style="text;strokeColor=none;fillColor=none;align=left;verticalAlign=top;spacingLeft=4;spacingRight=4;overflow=hidden;rotatable=0;points=[[0,0.5],[1,0.5]];portConstraint=eastwest;whiteSpace=wrap;html=1;labelBackgroundColor=none;fontColor=#46495D;" parent="47Hi3gHZrNvDlHMeIHNF-59" vertex="1">
          <mxGeometry y="112" width="140" height="26" as="geometry" />
        </mxCell>
        <mxCell id="47Hi3gHZrNvDlHMeIHNF-69" value="" style="endArrow=open;endFill=1;endSize=12;html=1;rounded=0;labelBackgroundColor=none;strokeColor=#788AA3;fontColor=default;" parent="1" source="47Hi3gHZrNvDlHMeIHNF-50" target="47Hi3gHZrNvDlHMeIHNF-59" edge="1">
          <mxGeometry width="160" relative="1" as="geometry">
            <mxPoint x="267" y="700" as="sourcePoint" />
            <mxPoint x="267" y="819" as="targetPoint" />
          </mxGeometry>
        </mxCell>
        <mxCell id="47Hi3gHZrNvDlHMeIHNF-70" value="inmueble_garantia" style="text;html=1;align=center;verticalAlign=middle;resizable=0;points=[];autosize=1;strokeColor=none;fillColor=none;labelBackgroundColor=none;fontColor=#46495D;" parent="1" vertex="1">
          <mxGeometry x="292" y="710" width="120" height="30" as="geometry" />
        </mxCell>
        <mxCell id="47Hi3gHZrNvDlHMeIHNF-71" value="1" style="text;html=1;align=center;verticalAlign=middle;resizable=0;points=[];autosize=1;strokeColor=none;fillColor=none;labelBackgroundColor=none;fontColor=#46495D;" parent="1" vertex="1">
          <mxGeometry x="262" y="710" width="30" height="30" as="geometry" />
        </mxCell>
        <mxCell id="47Hi3gHZrNvDlHMeIHNF-99" value="" style="endArrow=open;endFill=1;endSize=12;html=1;rounded=0;edgeStyle=orthogonalEdgeStyle;labelBackgroundColor=none;strokeColor=#788AA3;fontColor=default;" parent="1" source="47Hi3gHZrNvDlHMeIHNF-1" target="PT10j_FzXJRccaoBTvu9-1" edge="1">
          <mxGeometry width="160" relative="1" as="geometry">
            <mxPoint x="677" y="22" as="sourcePoint" />
            <mxPoint x="902" y="22" as="targetPoint" />
            <Array as="points">
              <mxPoint x="972" y="200" />
              <mxPoint x="972" y="200" />
            </Array>
          </mxGeometry>
        </mxCell>
      </root>
    </mxGraphModel>
  </diagram>
</mxfile>
